<svg xmlns="http://www.w3.org/2000/svg" xmlns:xlink="http://www.w3.org/1999/xlink" xmlns:lucid="lucid" width="1320" height="1220"><g transform="translate(0 -60)" lucid:page-tab-id="0_0"><path d="M20 86a6 6 0 0 1 6-6h1268a6 6 0 0 1 6 6v508a6 6 0 0 1-6 6H26a6 6 0 0 1-6-6z" stroke="#000" stroke-opacity="0" stroke-width="3" fill="#c1e4f7" fill-opacity=".62"/><path d="M21.42 86a6 6 0 0 1 6-6h228a6 6 0 0 1 6 6v48a6 6 0 0 1-6 6h-228a6 6 0 0 1-6-6z" stroke="#000" stroke-opacity="0" stroke-width="3" fill="#fff" fill-opacity="0"/><use xlink:href="#a" transform="matrix(1,0,0,1,26.417322834645574,85) translate(48.425925925925924 30.27777777777778)"/><use xlink:href="#b" transform="matrix(1,0,0,1,26.417322834645574,85) translate(131.01851851851853 30.27777777777778)"/><path d="M180 406a6 6 0 0 1 6-6h228a6 6 0 0 1 6 6v88a6 6 0 0 1-6 6H186a6 6 0 0 1-6-6z" stroke="#5e5e5e" stroke-width="3" fill="#fff"/><use xlink:href="#c" transform="matrix(1,0,0,1,185,405) translate(10.246913580246911 48.71527777777778)"/><use xlink:href="#d" transform="matrix(1,0,0,1,185,405) translate(131.11111111111111 48.71527777777778)"/><use xlink:href="#e" transform="matrix(1,0,0,1,185,405) translate(175.37037037037038 48.71527777777778)"/><path d="M900 406a6 6 0 0 1 6-6h228a6 6 0 0 1 6 6v88a6 6 0 0 1-6 6H906a6 6 0 0 1-6-6z" stroke="#5e5e5e" stroke-width="3" fill="#fff"/><use xlink:href="#f" transform="matrix(1,0,0,1,905,405) translate(17.59259259259258 37.46527777777778)"/><use xlink:href="#g" transform="matrix(1,0,0,1,905,405) translate(118.76543209876543 37.46527777777778)"/><use xlink:href="#h" transform="matrix(1,0,0,1,905,405) translate(174.320987654321 37.46527777777778)"/><use xlink:href="#e" transform="matrix(1,0,0,1,905,405) translate(92.80864197530865 64.13194444444446)"/><path d="M180 226a6 6 0 0 1 6-6h128a6 6 0 0 1 6 6v38a6 6 0 0 1-6 6H186a6 6 0 0 1-6-6z" stroke="#5e5e5e" stroke-width="3" fill="#fff"/><use xlink:href="#i" transform="matrix(1,0,0,1,185,225) translate(5.246913580246918 25.27777777777778)"/><path d="M40 306a6 6 0 0 1 6-6h128a6 6 0 0 1 6 6v38a6 6 0 0 1-6 6H46a6 6 0 0 1-6-6z" stroke="#5e5e5e" stroke-width="3" fill="#fff"/><use xlink:href="#j" transform="matrix(1,0,0,1,45,305) translate(11.975308641975303 25.27777777777778)"/><path d="M280 126a6 6 0 0 1 6-6h128a6 6 0 0 1 6 6v38a6 6 0 0 1-6 6H286a6 6 0 0 1-6-6z" stroke="#5e5e5e" stroke-width="3" fill="#fff"/><use xlink:href="#k" transform="matrix(1,0,0,1,285,125) translate(17.53086419753086 25.27777777777778)"/><path d="M900 212.67a6 6 0 0 1 6-6h128a6 6 0 0 1 6 6v38a6 6 0 0 1-6 6H906a6 6 0 0 1-6-6z" stroke="#5e5e5e" stroke-width="3" fill="#fff"/><use xlink:href="#l" transform="matrix(1,0,0,1,905,211.66666666666669) translate(27.469135802469133 25.27777777777778)"/><path d="M540 406a6 6 0 0 1 6-6h228a6 6 0 0 1 6 6v88a6 6 0 0 1-6 6H546a6 6 0 0 1-6-6z" stroke="#5e5e5e" stroke-width="3" fill="#fff"/><use xlink:href="#m" transform="matrix(1,0,0,1,545,405) translate(28.086419753086417 48.71527777777778)"/><use xlink:href="#d" transform="matrix(1,0,0,1,545,405) translate(113.27160493827161 48.71527777777778)"/><use xlink:href="#e" transform="matrix(1,0,0,1,545,405) translate(157.5308641975309 48.71527777777778)"/><path d="M1120 199.33a6 6 0 0 1 6-6h128a6 6 0 0 1 6 6v51.34a6 6 0 0 1-6 6h-128a6 6 0 0 1-6-6z" stroke="#5e5e5e" stroke-width="3" fill="#fff"/><use xlink:href="#n" transform="matrix(1,0,0,1,1125,198.33333333333334) translate(24.320987654320987 21.15277777777778)"/><use xlink:href="#o" transform="matrix(1,0,0,1,1125,198.33333333333334) translate(25.586419753086417 47.81944444444444)"/><path d="M540 126a6 6 0 0 1 6-6h128a6 6 0 0 1 6 6v38a6 6 0 0 1-6 6H546a6 6 0 0 1-6-6z" stroke="#5e5e5e" stroke-width="3" fill="#fff"/><use xlink:href="#p" transform="matrix(1,0,0,1,545,125) translate(29.876543209876544 25.27777777777778)"/><path d="M423.46 450h92.34" stroke="#5e5e5e" stroke-width="4" fill="none"/><path d="M423.5 452h-2.03v-4h2.04z" stroke="#5e5e5e" stroke-width=".05" fill="#5e5e5e"/><path d="M532.06 450l-14.26 4.64v-9.28z" stroke="#5e5e5e" stroke-width="4" fill="#5e5e5e"/><path d="M783.46 450h92.34" stroke="#5e5e5e" stroke-width="4" fill="none"/><path d="M783.5 452h-2.03v-4h2.04z" stroke="#5e5e5e" stroke-width=".05" fill="#5e5e5e"/><path d="M892.06 450l-14.26 4.64v-9.28z" stroke="#5e5e5e" stroke-width="4" fill="#5e5e5e"/><path d="M1020 503.46V554a6 6 0 0 1-6 6H306a6 6 0 0 1-6-6v-29.8" stroke="#19967d" stroke-width="4" fill="none"/><path d="M1022 503.5h-4v-2.04h4z" stroke="#19967d" stroke-width=".05" fill="#19967d"/><path d="M300 507.94l4.64 14.26h-9.28z" stroke="#19967d" stroke-width="4" fill="#19967d"/><path d="M660 503.46v32a6 6 0 0 1-6 6H306a6 6 0 0 1-6-6V524.2" stroke="#19967d" stroke-width="4" fill="none"/><path d="M662 503.5h-4v-2.04h4z" stroke="#19967d" stroke-width=".05" fill="#19967d"/><path d="M300 507.94l4.64 14.26h-9.28z" stroke="#19967d" stroke-width="4" fill="#19967d"/><path d="M250 273.46v61.52a.03.03 0 0 0 .03.03.03.03 0 0 1 .02.03v40.78" stroke="#19967d" stroke-width="4" fill="none"/><path d="M252 273.5h-4v-2.04h4z" stroke="#19967d" stroke-width=".05" fill="#19967d"/><path d="M250.05 392.08l-4.63-14.27h9.27z" stroke="#19967d" stroke-width="4" fill="#19967d"/><path d="M326.7 173.48v111.5a.02.02 0 0 1-.03.02.02.02 0 0 0-.02.02v90.77" stroke="#c92d39" stroke-width="4" fill="none"/><path d="M328.7 173.53h-4v-2.05h4z" stroke="#c92d39" stroke-width=".05" fill="#c92d39"/><path d="M326.65 392.06l-4.63-14.27h9.27z" stroke="#c92d39" stroke-width="4" fill="#c92d39"/><path d="M420.9 170.35L544.56 379" stroke="#c92d39" stroke-width="4" fill="none"/><path d="M422.65 169.37l-3.44 2.04-.8-1.33.9-.76.77-.9.62-1 .32-.8z" stroke="#c92d39" stroke-width=".05" fill="#c92d39"/><path d="M552.84 393l-11.26-9.9 7.98-4.73z" stroke="#c92d39" stroke-width="4" fill="#c92d39"/><path d="M566.67 172.96l-12.76 13.92m-12.74 13.92l-25.5 27.84m-12.77 13.92l-25.52 27.84m-12.75 13.92l-25.5 27.84m-12.77 13.92l-25.5 27.83m-12.76 13.93l-12.76 13.92" stroke="#5e5e5e" stroke-width="4" fill="none"/><path d="M568.1 174.35l-2.94-2.7.15-.16h5.43z" stroke="#5e5e5e" stroke-width=".05" fill="#5e5e5e"/><path d="M364.35 393.75l6.22-13.65 6.84 6.26z" stroke="#5e5e5e" stroke-width="4" fill="#5e5e5e"/><path d="M610 173.46v18.6m0 18.58v37.17m0 18.6V285h.04v15.16m0 15.13v30.25m0 15.13v15.13" stroke="#5e5e5e" stroke-width="4" fill="none"/><path d="M612 173.5h-4v-2.04h4z" stroke="#5e5e5e" stroke-width=".05" fill="#5e5e5e"/><path d="M610.05 392.08l-4.63-14.27h9.27z" stroke="#5e5e5e" stroke-width="4" fill="#5e5e5e"/><path d="M765 179.2L432.62 386.48" stroke="#c92d39" stroke-width="4" fill="none"/><path d="M770.3 178.27l-4.3 2.67-1.73-2.78h5.95z" stroke="#c92d39" stroke-width=".05" fill="#c92d39"/><path d="M418.82 395.08l9.66-11.5 4.9 7.88z" stroke="#c92d39" stroke-width="4" fill="#c92d39"/><path d="M896.55 231.92l-19.23 2.5m-19.24 2.5l-38.48 5.02m-19.23 2.5l-38.48 5m-19.25 2.52l-38.47 5m-19.24 2.5l-38.47 5.02m-19.24 2.5l-38.47 5m-19.24 2.5l-38.47 5.02M511.8 282l-38.47 5m-19.23 2.5l-38.48 5.02m-19.24 2.5l-38.47 5m-19.23 2.52l-38.47 5m-19.24 2.5l-38.47 5.02m-19.25 2.5l-19.24 2.5" stroke="#5e5e5e" stroke-width="4" fill="none"/><path d="M898.54 233.68l-1.78.23-.52-3.95 2.3-.3z" stroke="#5e5e5e" stroke-width=".05" fill="#5e5e5e"/><path d="M187.88 324.16l13.55-6.43 1.2 9.2z" stroke="#5e5e5e" stroke-width="4" fill="#5e5e5e"/><path d="M794.2 180.08l-48.74 196.36" stroke="#c92d39" stroke-width="4" fill="none"/><path d="M796.13 180.62l-3.88-.97.37-1.5h4.13z" stroke="#c92d39" stroke-width=".05" fill="#c92d39"/><path d="M741.54 392.23l-1.06-14.96 9 2.23z" stroke="#c92d39" stroke-width="4" fill="#c92d39"/><path d="M970.67 260l6.95 19.53m6.95 19.52l13.9 39.03m6.95 19.52l6.95 19.52" stroke="#5e5e5e" stroke-width="4" fill="none"/><path d="M972.57 259.4l-3.77 1.33-.92-2.6h4.24z" stroke="#5e5e5e" stroke-width=".05" fill="#5e5e5e"/><path d="M1017.83 392.44l-9.15-11.88 8.73-3.1z" stroke="#5e5e5e" stroke-width="4" fill="#5e5e5e"/><path d="M740 119.33a6 6 0 0 1 6-6h148a6 6 0 0 1 6 6v51.34a6 6 0 0 1-6 6H746a6 6 0 0 1-6-6z" stroke="#5e5e5e" stroke-width="3" fill="#fff"/><use xlink:href="#q" transform="matrix(1,0,0,1,745,118.33333333333333) translate(3.456790123456784 21.15277777777778)"/><use xlink:href="#r" transform="matrix(1,0,0,1,745,118.33333333333333) translate(41.69753086419753 47.81944444444444)"/><path d="M1189.02 259.87l-67.18 118.84" stroke="#c92d39" stroke-width="4" fill="none"/><path d="M1190.73 260.9l-3.48-1.97.45-.8h4.6z" stroke="#c92d39" stroke-width=".05" fill="#c92d39"/><path d="M1113.84 392.87l2.98-14.7 8.07 4.56z" stroke="#c92d39" stroke-width="4" fill="#c92d39"/><path d="M40 431a6 6 0 0 1 6-6h68a6 6 0 0 1 6 6v38a6 6 0 0 1-6 6H46a6 6 0 0 1-6-6z" stroke="#5e5e5e" stroke-width="3" fill="#fff"/><use xlink:href="#s" transform="matrix(1,0,0,1,45,430) translate(5.401234567901234 25.27777777777778)"/><path d="M176.54 450H144.2" stroke="#c92d39" stroke-width="4" fill="none"/><path d="M178.54 452h-2.05v-4h2.03z" stroke="#c92d39" stroke-width=".05" fill="#c92d39"/><path d="M127.94 450l14.26-4.64v9.28z" stroke="#c92d39" stroke-width="4" fill="#c92d39"/><path d="M155.8 245H116a6 6 0 0 0-6 6v45.54" stroke="#19967d" stroke-width="4" fill="none"/><path d="M172.06 245l-14.26 4.64v-9.28z" stroke="#19967d" stroke-width="4" fill="#19967d"/><path d="M112 298.54h-4v-2.05h4z" stroke="#19967d" stroke-width=".05" fill="#19967d"/><path d="M110.83 353.28l34.45 76" stroke="#19967d" stroke-width="4" fill="none"/><path d="M112.67 352.5l-3.64 1.66-1.23-2.7h4.4z" stroke="#19967d" stroke-width=".05" fill="#19967d"/><path d="M152 444.1l-10.1-11.07 8.43-3.83z" stroke="#19967d" stroke-width="4" fill="#19967d"/><path d="M903.34 145.7l193.86 71.44" stroke="#c92d39" stroke-width="4" fill="none"/><path d="M904.08 143.83l-1.38 3.76-1.23-.47v-4.26z" stroke="#c92d39" stroke-width=".05" fill="#c92d39"/><path d="M1112.46 222.76l-15-.58 3.22-8.7z" stroke="#c92d39" stroke-width="4" fill="#c92d39"/><path d="M20 606a6 6 0 0 1 6-6h1268a6 6 0 0 1 6 6v508a6 6 0 0 1-6 6H26a6 6 0 0 1-6-6z" stroke="#000" stroke-opacity="0" stroke-width="3" fill="#ffeca9" fill-opacity=".62"/><path d="M21.42 606a6 6 0 0 1 6-6h228a6 6 0 0 1 6 6v48a6 6 0 0 1-6 6h-228a6 6 0 0 1-6-6z" stroke="#000" stroke-opacity="0" stroke-width="3" fill="#fff" fill-opacity="0"/><use xlink:href="#t" transform="matrix(1,0,0,1,26.417322834645574,605) translate(31.23456790123457 30.27777777777778)"/><use xlink:href="#b" transform="matrix(1,0,0,1,26.417322834645574,605) translate(148.20987654320987 30.27777777777778)"/><path d="M900 726a6 6 0 0 1 6-6h228a6 6 0 0 1 6 6v88a6 6 0 0 1-6 6H906a6 6 0 0 1-6-6z" stroke="#5e5e5e" stroke-width="3" fill="#fff"/><use xlink:href="#f" transform="matrix(1,0,0,1,905,725) translate(8.302469135802468 48.71527777777778)"/><use xlink:href="#g" transform="matrix(1,0,0,1,905,725) translate(109.47530864197532 48.71527777777778)"/><use xlink:href="#u" transform="matrix(1,0,0,1,905,725) translate(165.0308641975309 48.71527777777778)"/><path d="M540 726a6 6 0 0 1 6-6h228a6 6 0 0 1 6 6v88a6 6 0 0 1-6 6H546a6 6 0 0 1-6-6z" stroke="#5e5e5e" stroke-width="3" fill="#fff"/><use xlink:href="#m" transform="matrix(1,0,0,1,545,725) translate(44.074074074074076 48.71527777777778)"/><use xlink:href="#u" transform="matrix(1,0,0,1,545,725) translate(129.25925925925927 48.71527777777778)"/><path d="M423.96 770h91.84" stroke="#5e5e5e" stroke-width="4" fill="none"/><path d="M424 772h-2.03v-4H424z" stroke="#5e5e5e" stroke-width=".05" fill="#5e5e5e"/><path d="M532.06 770l-14.26 4.64v-9.28z" stroke="#5e5e5e" stroke-width="4" fill="#5e5e5e"/><path d="M783.46 770h92.34" stroke="#5e5e5e" stroke-width="4" fill="none"/><path d="M783.5 772h-2.03v-4h2.04z" stroke="#5e5e5e" stroke-width=".05" fill="#5e5e5e"/><path d="M892.06 770l-14.26 4.64v-9.28z" stroke="#5e5e5e" stroke-width="4" fill="#5e5e5e"/><path d="M40 751a6 6 0 0 1 6-6h68a6 6 0 0 1 6 6v38a6 6 0 0 1-6 6H46a6 6 0 0 1-6-6z" stroke="#5e5e5e" stroke-width="3" fill="#fff"/><use xlink:href="#s" transform="matrix(1,0,0,1,45,750) translate(5.401234567901234 25.27777777777778)"/><path d="M176.04 770H144.2" stroke="#c92d39" stroke-width="4" fill="none"/><path d="M178.04 772H176v-4h2.03z" stroke="#c92d39" stroke-width=".05" fill="#c92d39"/><path d="M127.94 770l14.26-4.64v9.28z" stroke="#c92d39" stroke-width="4" fill="#c92d39"/><path d="M1020 716.54V666a6 6 0 0 0-6-6H306a6 6 0 0 0-6 6v29.3" stroke="#19967d" stroke-width="4" fill="none"/><path d="M1022 718.54h-4v-2.05h4z" stroke="#19967d" stroke-width=".05" fill="#19967d"/><path d="M300 711.56l-4.64-14.26h9.28z" stroke="#19967d" stroke-width="4" fill="#19967d"/><path d="M660 716.54v-32.5a6 6 0 0 0-6-6H306a6 6 0 0 0-6 6v11.26" stroke="#19967d" stroke-width="4" fill="none"/><path d="M662 718.54h-4v-2.05h4z" stroke="#19967d" stroke-width=".05" fill="#19967d"/><path d="M300 711.56l-4.64-14.26h9.28z" stroke="#19967d" stroke-width="4" fill="#19967d"/><path d="M1062.62 503.45v5.43m0 7.25V527m0 7.24v10.86m0 7.25v10.86m0 7.26v10.86m0 7.25V594l-.07.94-.22.9-.36.88-.5.8-.6.72-.72.6-.8.5-.87.37-.92.23h-5.93m-7.9 0h-11.88m-7.9 0h-11.88m-7.9 0H992.3m-7.92 0h-11.86m-7.9 0h-11.88m-7.9 0h-11.88m-7.9 0h-11.88m-7.9 0H893.4m-7.9 0h-11.87m-7.9 0l-11.88.02m-7.9 0h-11.88m-7.9 0h-11.88m-7.92 0h-11.86m-7.92 0h-11.86m-7.9 0h-11.88m-7.9 0h-11.88m-7.9 0H715.4m-7.9 0h-11.87m-7.9 0h-11.88m-7.9 0l-11.88.02m-7.9 0h-11.88m-7.92 0H616.5m-7.9 0h-11.86m-7.9 0h-11.88m-7.9 0h-11.88m-7.9 0H537.4m-7.9 0H517.6m-7.9 0h-11.87m-7.9 0h-11.88m-7.9 0l-11.88.02m-7.92 0H438.5m-7.9 0h-11.87m-7.9 0h-11.87m-7.9 0h-11.88m-7.9 0H359.4m-7.9 0H339.6m-7.9 0h-11.88m-7.9 0H306l-.94.07-.9.22-.88.35-.8.5-.72.6-.6.72-.5.8-.37.88-.23.9v5.43m0 7.2l-.02 10.84m0 7.22v10.83m-.02 7.22v10.82m0 7.22l-.02 10.83m0 7.2v5.43" stroke="#19967d" stroke-width="4" fill="none"/><path d="M1064.62 503.5h-4v-2.05h4z" stroke="#19967d" stroke-width=".05" fill="#19967d"/><path d="M300 711.56l-4.64-14.26h9.28z" stroke="#19967d" stroke-width="4" fill="#19967d"/><path d="M715.94 503.45v7.1m0 9.44v14.17m0 9.45V550.74h.04V557.87m0 9.45v14.2m0 9.44v7.1" stroke="#19967d" stroke-width="4" fill="none"/><path d="M717.94 503.5h-4v-2.05h4zM718 600.03h-4v-2.05h4z" stroke="#19967d" stroke-width=".05" fill="#19967d"/><path d="M101.42 936a6 6 0 0 1 6-6h148a6 6 0 0 1 6 6v74.67a6 6 0 0 1-6 6h-148a6 6 0 0 1-6-6z" stroke="#5e5e5e" stroke-width="3" fill="#fff"/><use xlink:href="#v" transform="matrix(1,0,0,1,106.41732283464557,935) translate(12.1604938271605 29.80902777777778)"/><use xlink:href="#w" transform="matrix(1,0,0,1,106.41732283464557,935) translate(1.0493827160493936 56.47569444444445)"/><path d="M580 946a6 6 0 0 1 6-6h148a6 6 0 0 1 6 6v38a6 6 0 0 1-6 6H586a6 6 0 0 1-6-6z" stroke="#5e5e5e" stroke-width="3" fill="#fff"/><use xlink:href="#x" transform="matrix(1,0,0,1,585,945) translate(14.629629629629626 25.27777777777778)"/><path d="M400 876a6 6 0 0 1 6-6h148a6 6 0 0 1 6 6v38a6 6 0 0 1-6 6H406a6 6 0 0 1-6-6z" stroke="#5e5e5e" stroke-width="3" fill="#fff"/><use xlink:href="#y" transform="matrix(1,0,0,1,405,875) translate(6.574074074074076 25.27777777777778)"/><use xlink:href="#z" transform="matrix(1,0,0,1,405,875) translate(73.11728395061728 25.27777777777778)"/><path d="M820 866a6 6 0 0 1 6-6h148a6 6 0 0 1 6 6v38a6 6 0 0 1-6 6H826a6 6 0 0 1-6-6z" stroke="#5e5e5e" stroke-width="3" fill="#fff"/><use xlink:href="#A" transform="matrix(1,0,0,1,825,865) translate(8.425925925925924 25.27777777777778)"/><use xlink:href="#B" transform="matrix(1,0,0,1,825,865) translate(65.15432098765432 25.27777777777778)"/><path d="M1120 886a6 6 0 0 1 6-6h128a6 6 0 0 1 6 6v51.33a6 6 0 0 1-6 6h-128a6 6 0 0 1-6-6z" stroke="#5e5e5e" stroke-width="3" fill="#fff"/><use xlink:href="#n" transform="matrix(1,0,0,1,1125,885) translate(24.320987654320987 21.15277777777778)"/><use xlink:href="#o" transform="matrix(1,0,0,1,1125,885) translate(25.586419753086417 47.81944444444444)"/><path d="M333.45 977.03l-4-4.74m-5.34-6.33l-8-9.5m-5.33-6.3l-8-9.5m-5.34-6.3l-8-9.5m-5.34-6.32l-8.02-9.48m-5.34-6.32l-8-9.5m-5.34-6.3l-8-9.5m-5.34-6.3l-8-9.5m-5.34-6.32l-8-9.48m-5.34-6.32l-8-9.48m-5.35-6.33l-8-9.48m-5.34-6.32l-8-9.48m-5.35-6.32l-4-4.75" stroke="#5e5e5e" stroke-width="4" fill="none"/><path d="M337.36 978.56h-5.23l-.24-.28 3.05-2.58z" stroke="#5e5e5e" stroke-width=".05" fill="#5e5e5e"/><path d="M162.85 774.95l12.75 7.9-7.1 6z" stroke="#5e5e5e" stroke-width="4" fill="#5e5e5e"/><path d="M181.42 926.54v-51.98a.05.05 0 0 0-.05-.04.05.05 0 0 1-.05-.05v-31.24" stroke="#19967d" stroke-width="4" fill="none"/><path d="M183.42 928.54h-4v-2.05h4z" stroke="#19967d" stroke-width=".05" fill="#19967d"/><path d="M181.32 826.97l4.64 14.26h-9.27z" stroke="#19967d" stroke-width="4" fill="#19967d"/><path d="M406.02 866.57l-.16-21.9" stroke="#19967d" stroke-width="4" fill="none"/><path d="M408.04 868.57h-3.16l-.84.2-.02-2.23 4-.03z" stroke="#19967d" stroke-width=".05" fill="#19967d"/><path d="M405.74 828.4l4.74 14.23-9.27.07z" stroke="#19967d" stroke-width="4" fill="#19967d"/><path d="M558.73 868.2l-.07-23.97" stroke="#19967d" stroke-width="4" fill="none"/><path d="M560.74 872.72l-.05-.13-.63-1-.76-.9-.9-.77-1-.62-.67-.27v-.87h4z" stroke="#19967d" stroke-width=".05" fill="#19967d"/><path d="M558.6 827.97l4.7 14.25-9.28.03z" stroke="#19967d" stroke-width="4" fill="#19967d"/><path d="M660 936.54V844.2" stroke="#c92d39" stroke-width="4" fill="none"/><path d="M662 938.54h-4v-2.05h4z" stroke="#c92d39" stroke-width=".05" fill="#c92d39"/><path d="M660 827.94l4.64 14.26h-9.28z" stroke="#c92d39" stroke-width="4" fill="#c92d39"/><path d="M818.13 860.8l-24.3-24.25" stroke="#c92d39" stroke-width="4" fill="none"/><path d="M820.78 860.62l-.1.07-.75.9-.62 1-.44 1.08-.13.55-2.05-2.05 2.83-2.83z" stroke="#c92d39" stroke-width=".05" fill="#c92d39"/><path d="M782.3 825.06l13.38 6.8-6.55 6.56z" stroke="#c92d39" stroke-width="4" fill="#c92d39"/><path d="M1160.18 876.95l-28-37.33" stroke="#c92d39" stroke-width="4" fill="none"/><path d="M1163.88 878.55h-5l-.33-.44 3.2-2.4z" stroke="#c92d39" stroke-width=".05" fill="#c92d39"/><path d="M1122.42 826.6l12.27 8.64-7.43 5.56z" stroke="#c92d39" stroke-width="4" fill="#c92d39"/><path d="M780 946a6 6 0 0 1 6-6h148a6 6 0 0 1 6 6v38a6 6 0 0 1-6 6H786a6 6 0 0 1-6-6z" stroke="#5e5e5e" stroke-width="3" fill="#fff"/><use xlink:href="#C" transform="matrix(1,0,0,1,785,945) translate(4.537037037037038 25.27777777777778)"/><use xlink:href="#B" transform="matrix(1,0,0,1,785,945) translate(69.0432098765432 25.27777777777778)"/><path d="M781.38 937.72l-48.52-95.98" stroke="#c92d39" stroke-width="4" fill="none"/><path d="M784.14 938.75l-.46.1-1.1.46-1 .63-.9.76-.02.03-1.1-2.15 3.58-1.8z" stroke="#c92d39" stroke-width=".05" fill="#c92d39"/><path d="M725.52 827.22l10.57 10.64-8.28 4.18z" stroke="#c92d39" stroke-width="4" fill="#c92d39"/><path d="M142 1165h22.55m22.55 0h45.1m22.55 0h22.55M142.05 1165H140" stroke="#5e5e5e" stroke-width="4" fill="none"/><path d="M293.56 1165l-14.26 4.64v-9.28z" stroke="#5e5e5e" stroke-width="4" fill="#5e5e5e"/><path d="M142 1230h5.8m7.73 0h11.6m7.73 0h11.6m7.73 0h11.58m7.73 0h11.6m7.74 0h11.6m7.73 0h11.6m7.73 0h5.8M142.05 1230H140" stroke="#5e5e5e" stroke-width="4" fill="none"/><path d="M293.56 1230l-14.26 4.64v-9.28z" stroke="#5e5e5e" stroke-width="4" fill="#5e5e5e"/><path d="M300 1126a6 6 0 0 1 6-6h228a6 6 0 0 1 6 6v78a6 6 0 0 1-6 6H306a6 6 0 0 1-6-6z" stroke="#000" stroke-opacity="0" stroke-width="4" fill="#fff" fill-opacity="0"/><use xlink:href="#D" transform="matrix(1,0,0,1,305,1125) translate(27.172839506172878 31.722222222222218)"/><use xlink:href="#E" transform="matrix(1,0,0,1,305,1125) translate(91.27160493827161 31.722222222222218)"/><use xlink:href="#F" transform="matrix(1,0,0,1,305,1125) translate(125.83950617283949 31.722222222222218)"/><use xlink:href="#G" transform="matrix(1,0,0,1,305,1125) translate(164.3086419753086 31.722222222222218)"/><use xlink:href="#H" transform="matrix(1,0,0,1,305,1125) translate(10.086419753086474 53.05555555555554)"/><use xlink:href="#I" transform="matrix(1,0,0,1,305,1125) translate(75.17283950617286 53.05555555555554)"/><use xlink:href="#J" transform="matrix(1,0,0,1,305,1125) translate(95.86419753086422 53.05555555555554)"/><use xlink:href="#K" transform="matrix(1,0,0,1,305,1125) translate(167.91358024691357 53.05555555555554)"/><path d="M300 1206a6 6 0 0 1 6-6h228a6 6 0 0 1 6 6v48a6 6 0 0 1-6 6H306a6 6 0 0 1-6-6z" stroke="#000" stroke-opacity="0" stroke-width="4" fill="#fff" fill-opacity="0"/><g><use xlink:href="#L" transform="matrix(1,0,0,1,305,1205) translate(9.567901234567913 17.34722222222222)"/><use xlink:href="#M" transform="matrix(1,0,0,1,305,1205) translate(82.45679012345678 17.34722222222222)"/><use xlink:href="#N" transform="matrix(1,0,0,1,305,1205) translate(122.85185185185183 17.34722222222222)"/><use xlink:href="#O" transform="matrix(1,0,0,1,305,1205) translate(189.96296296296293 17.34722222222222)"/><use xlink:href="#P" transform="matrix(1,0,0,1,305,1205) translate(44.50617283950618 38.68055555555556)"/><use xlink:href="#Q" transform="matrix(1,0,0,1,305,1205) translate(110.53086419753086 38.68055555555556)"/><use xlink:href="#R" transform="matrix(1,0,0,1,305,1205) translate(130.28395061728395 38.68055555555556)"/></g><path d="M300 986a6 6 0 0 1 6-6h128a6 6 0 0 1 6 6v38a6 6 0 0 1-6 6H306a6 6 0 0 1-6-6z" stroke="#5e5e5e" stroke-width="3" fill="#ffbbb1"/><g><use xlink:href="#l" transform="matrix(1,0,0,1,305,985) translate(27.469135802469133 25.27777777777778)"/></g><path d="M180 726a6 6 0 0 1 6-6h228a6 6 0 0 1 6 6v88a6 6 0 0 1-6 6H186a6 6 0 0 1-6-6z" stroke="#5e5e5e" stroke-width="4" fill="#fff"/><g><use xlink:href="#c" transform="matrix(1,0,0,1,185,725) translate(26.23456790123457 48.71527777777778)"/><use xlink:href="#u" transform="matrix(1,0,0,1,185,725) translate(147.0987654320988 48.71527777777778)"/></g><path d="M562 1165h115.3M562.05 1165H560" stroke="#19967d" stroke-width="4" fill="none"/><path d="M693.56 1165l-14.26 4.64v-9.28z" stroke="#19967d" stroke-width="4" fill="#19967d"/><path d="M562 1225h115.3M562.05 1225H560" stroke="#c92d39" stroke-width="4" fill="none"/><path d="M693.56 1225l-14.26 4.64v-9.28z" stroke="#c92d39" stroke-width="4" fill="#c92d39"/><path d="M700 1141a6 6 0 0 1 6-6h228a6 6 0 0 1 6 6v48a6 6 0 0 1-6 6H706a6 6 0 0 1-6-6z" stroke="#000" stroke-opacity="0" stroke-width="4" fill="#fff" fill-opacity="0"/><g><use xlink:href="#S" transform="matrix(1,0,0,1,705,1140) translate(12.901234567901255 17.34722222222222)"/><use xlink:href="#T" transform="matrix(1,0,0,1,705,1140) translate(77 17.34722222222222)"/><use xlink:href="#U" transform="matrix(1,0,0,1,705,1140) translate(111.5679012345679 17.34722222222222)"/><use xlink:href="#V" transform="matrix(1,0,0,1,705,1140) translate(150.037037037037 17.34722222222222)"/><use xlink:href="#W" transform="matrix(1,0,0,1,705,1140) translate(45.49382716049384 38.68055555555556)"/><use xlink:href="#X" transform="matrix(1,0,0,1,705,1140) translate(84.95061728395062 38.68055555555556)"/></g><path d="M700 1201a6 6 0 0 1 6-6h228a6 6 0 0 1 6 6v48a6 6 0 0 1-6 6H706a6 6 0 0 1-6-6z" stroke="#000" stroke-opacity="0" stroke-width="4" fill="#fff" fill-opacity="0"/><g><use xlink:href="#S" transform="matrix(1,0,0,1,705,1200) translate(9.913580246913597 17.34722222222222)"/><use xlink:href="#T" transform="matrix(1,0,0,1,705,1200) translate(74.01234567901234 17.34722222222222)"/><use xlink:href="#U" transform="matrix(1,0,0,1,705,1200) translate(108.58024691358024 17.34722222222222)"/><use xlink:href="#Y" transform="matrix(1,0,0,1,705,1200) translate(147.04938271604937 17.34722222222222)"/><use xlink:href="#W" transform="matrix(1,0,0,1,705,1200) translate(45.49382716049384 38.68055555555556)"/><use xlink:href="#X" transform="matrix(1,0,0,1,705,1200) translate(84.95061728395062 38.68055555555556)"/></g><path d="M980 1186a6 6 0 0 1 6-6h48a6 6 0 0 1 6 6v28a6 6 0 0 1-6 6h-48a6 6 0 0 1-6-6z" stroke="#5e5e5e" stroke-width="3" fill="#ffbbb1"/><path d="M1040 1169a6 6 0 0 1 6-6h228a6 6 0 0 1 6 6v62a6 6 0 0 1-6 6h-228a6 6 0 0 1-6-6z" stroke="#000" stroke-opacity="0" stroke-width="4" fill="#fff" fill-opacity="0"/><g><use xlink:href="#S" transform="matrix(1,0,0,1,1045,1168) translate(13.888888888888914 18.22222222222222)"/><use xlink:href="#T" transform="matrix(1,0,0,1,1045,1168) translate(77.98765432098766 18.22222222222222)"/><use xlink:href="#U" transform="matrix(1,0,0,1,1045,1168) translate(112.55555555555556 18.22222222222222)"/><use xlink:href="#Z" transform="matrix(1,0,0,1,1045,1168) translate(151.02469135802468 18.22222222222222)"/><use xlink:href="#aa" transform="matrix(1,0,0,1,1045,1168) translate(175.71604938271605 18.22222222222222)"/><use xlink:href="#ab" transform="matrix(1,0,0,1,1045,1168) translate(18.851851851851876 39.55555555555556)"/><use xlink:href="#ac" transform="matrix(1,0,0,1,1045,1168) translate(86.90123456790126 39.55555555555556)"/><use xlink:href="#ad" transform="matrix(1,0,0,1,1045,1168) translate(105.61728395061729 39.55555555555556)"/><use xlink:href="#ae" transform="matrix(1,0,0,1,1045,1168) translate(85.44444444444446 60.888888888888886)"/></g><defs><path fill="#333" d="M185-189c-5-48-123-54-124 2 14 75 158 14 163 119 3 78-121 87-175 55-17-10-28-26-33-46l33-7c5 56 141 63 141-1 0-78-155-14-162-118-5-82 145-84 179-34 5 7 8 16 11 25" id="af"/><path fill="#333" d="M179-190L93 31C79 59 56 82 12 73V49c39 6 53-20 64-50L1-190h34L92-34l54-156h33" id="ag"/><path fill="#333" d="M24 0v-261h32V0H24" id="ah"/><path fill="#333" d="M108 0H70L1-190h34L89-25l56-165h34" id="ai"/><path fill="#333" d="M141-36C126-15 110 5 73 4 37 3 15-17 15-53c-1-64 63-63 125-63 3-35-9-54-41-54-24 1-41 7-42 31l-33-3c5-37 33-52 76-52 45 0 72 20 72 64v82c-1 20 7 32 28 27v20c-31 9-61-2-59-35zM48-53c0 20 12 33 32 33 41-3 63-29 60-74-43 2-92-5-92 41" id="aj"/><path fill="#333" d="M59-47c-2 24 18 29 38 22v24C64 9 27 4 27-40v-127H5v-23h24l9-43h21v43h35v23H59v120" id="ak"/><path fill="#333" d="M24-231v-30h32v30H24zM24 0v-190h32V0H24" id="al"/><path fill="#333" d="M96-169c-40 0-48 33-48 73s9 75 48 75c24 0 41-14 43-38l32 2c-6 37-31 61-74 61-59 0-76-41-82-99-10-93 101-131 147-64 4 7 5 14 7 22l-32 3c-4-21-16-35-41-35" id="am"/><g id="a"><use transform="matrix(0.06172839506172839,0,0,0.06172839506172839,0,0)" xlink:href="#af"/><use transform="matrix(0.06172839506172839,0,0,0.06172839506172839,14.814814814814813,0)" xlink:href="#ag"/><use transform="matrix(0.06172839506172839,0,0,0.06172839506172839,25.925925925925924,0)" xlink:href="#ah"/><use transform="matrix(0.06172839506172839,0,0,0.06172839506172839,30.80246913580247,0)" xlink:href="#ai"/><use transform="matrix(0.06172839506172839,0,0,0.06172839506172839,41.91358024691358,0)" xlink:href="#aj"/><use transform="matrix(0.06172839506172839,0,0,0.06172839506172839,54.25925925925926,0)" xlink:href="#ak"/><use transform="matrix(0.06172839506172839,0,0,0.06172839506172839,60.4320987654321,0)" xlink:href="#al"/><use transform="matrix(0.06172839506172839,0,0,0.06172839506172839,65.30864197530865,0)" xlink:href="#am"/></g><path fill="#333" d="M100-194c63 0 86 42 84 106H49c0 40 14 67 53 68 26 1 43-12 49-29l28 8c-11 28-37 45-77 45C44 4 14-33 15-96c1-61 26-98 85-98zm52 81c6-60-76-77-97-28-3 7-6 17-6 28h103" id="an"/><g id="b"><use transform="matrix(0.06172839506172839,0,0,0.06172839506172839,0,0)" xlink:href="#am"/><use transform="matrix(0.06172839506172839,0,0,0.06172839506172839,11.11111111111111,0)" xlink:href="#ag"/><use transform="matrix(0.06172839506172839,0,0,0.06172839506172839,22.22222222222222,0)" xlink:href="#am"/><use transform="matrix(0.06172839506172839,0,0,0.06172839506172839,33.33333333333333,0)" xlink:href="#ah"/><use transform="matrix(0.06172839506172839,0,0,0.06172839506172839,38.20987654320987,0)" xlink:href="#an"/></g><path fill="#333" d="M84 4C-5 8 30-112 23-190h32v120c0 31 7 50 39 49 72-2 45-101 50-169h31l1 190h-30c-1-10 1-25-2-33-11 22-28 36-60 37" id="ao"/><path fill="#333" d="M135-143c-3-34-86-38-87 0 15 53 115 12 119 90S17 21 10-45l28-5c4 36 97 45 98 0-10-56-113-15-118-90-4-57 82-63 122-42 12 7 21 19 24 35" id="ap"/><path fill="#333" d="M115-194c55 1 70 41 70 98S169 2 115 4C84 4 66-9 55-30l1 105H24l-1-265h31l2 30c10-21 28-34 59-34zm-8 174c40 0 45-34 45-75s-6-73-45-74c-42 0-51 32-51 76 0 43 10 73 51 73" id="aq"/><path fill="#333" d="M115-194c53 0 69 39 70 98 0 66-23 100-70 100C84 3 66-7 56-30L54 0H23l1-261h32v101c10-23 28-34 59-34zm-8 174c40 0 45-34 45-75 0-40-5-75-45-74-42 0-51 32-51 76 0 43 10 73 51 73" id="ar"/><g id="c"><use transform="matrix(0.06172839506172839,0,0,0.06172839506172839,0,0)" xlink:href="#af"/><use transform="matrix(0.06172839506172839,0,0,0.06172839506172839,14.814814814814813,0)" xlink:href="#ao"/><use transform="matrix(0.06172839506172839,0,0,0.06172839506172839,27.160493827160494,0)" xlink:href="#ap"/><use transform="matrix(0.06172839506172839,0,0,0.06172839506172839,38.27160493827161,0)" xlink:href="#am"/><use transform="matrix(0.06172839506172839,0,0,0.06172839506172839,49.38271604938272,0)" xlink:href="#an"/><use transform="matrix(0.06172839506172839,0,0,0.06172839506172839,61.7283950617284,0)" xlink:href="#aq"/><use transform="matrix(0.06172839506172839,0,0,0.06172839506172839,74.07407407407408,0)" xlink:href="#ak"/><use transform="matrix(0.06172839506172839,0,0,0.06172839506172839,80.24691358024691,0)" xlink:href="#al"/><use transform="matrix(0.06172839506172839,0,0,0.06172839506172839,85.12345679012346,0)" xlink:href="#ar"/><use transform="matrix(0.06172839506172839,0,0,0.06172839506172839,97.46913580246914,0)" xlink:href="#ah"/><use transform="matrix(0.06172839506172839,0,0,0.06172839506172839,102.34567901234568,0)" xlink:href="#an"/></g><path fill="#333" d="M206 0h-36l-40-164L89 0H53L-1-190h32L70-26l43-164h34l41 164 42-164h31" id="as"/><path fill="#333" d="M85-194c31 0 48 13 60 33l-1-100h32l1 261h-30c-2-10 0-23-3-31C134-8 116 4 85 4 32 4 16-35 15-94c0-66 23-100 70-100zm9 24c-40 0-46 34-46 75 0 40 6 74 45 74 42 0 51-32 51-76 0-42-9-74-50-73" id="at"/><g id="d"><use transform="matrix(0.06172839506172839,0,0,0.06172839506172839,0,0)" xlink:href="#as"/><use transform="matrix(0.06172839506172839,0,0,0.06172839506172839,15.987654320987653,0)" xlink:href="#al"/><use transform="matrix(0.06172839506172839,0,0,0.06172839506172839,20.864197530864196,0)" xlink:href="#ah"/><use transform="matrix(0.06172839506172839,0,0,0.06172839506172839,25.74074074074074,0)" xlink:href="#at"/></g><path fill="#333" d="M100-194c62-1 85 37 85 99 1 63-27 99-86 99S16-35 15-95c0-66 28-99 85-99zM99-20c44 1 53-31 53-75 0-43-8-75-51-75s-53 32-53 75 10 74 51 75" id="au"/><path fill="#333" d="M114-163C36-179 61-72 57 0H25l-1-190h30c1 12-1 29 2 39 6-27 23-49 58-41v29" id="av"/><g id="e"><use transform="matrix(0.06172839506172839,0,0,0.06172839506172839,0,0)" xlink:href="#ar"/><use transform="matrix(0.06172839506172839,0,0,0.06172839506172839,12.345679012345679,0)" xlink:href="#au"/><use transform="matrix(0.06172839506172839,0,0,0.06172839506172839,24.691358024691358,0)" xlink:href="#aj"/><use transform="matrix(0.06172839506172839,0,0,0.06172839506172839,37.03703703703704,0)" xlink:href="#av"/></g><path fill="#333" d="M33 0v-248h34V0H33" id="aw"/><path fill="#333" d="M117-194c89-4 53 116 60 194h-32v-121c0-31-8-49-39-48C34-167 62-67 57 0H25l-1-190h30c1 10-1 24 2 32 11-22 29-35 61-36" id="ax"/><path fill="#333" d="M101-234c-31-9-42 10-38 44h38v23H63V0H32v-167H5v-23h27c-7-52 17-82 69-68v24" id="ay"/><g id="f"><use transform="matrix(0.06172839506172839,0,0,0.06172839506172839,0,0)" xlink:href="#aw"/><use transform="matrix(0.06172839506172839,0,0,0.06172839506172839,6.172839506172839,0)" xlink:href="#ax"/><use transform="matrix(0.06172839506172839,0,0,0.06172839506172839,18.51851851851852,0)" xlink:href="#ay"/><use transform="matrix(0.06172839506172839,0,0,0.06172839506172839,24.691358024691358,0)" xlink:href="#an"/><use transform="matrix(0.06172839506172839,0,0,0.06172839506172839,37.03703703703704,0)" xlink:href="#am"/><use transform="matrix(0.06172839506172839,0,0,0.06172839506172839,48.14814814814815,0)" xlink:href="#ak"/><use transform="matrix(0.06172839506172839,0,0,0.06172839506172839,54.320987654320994,0)" xlink:href="#al"/><use transform="matrix(0.06172839506172839,0,0,0.06172839506172839,59.19753086419754,0)" xlink:href="#au"/><use transform="matrix(0.06172839506172839,0,0,0.06172839506172839,71.54320987654322,0)" xlink:href="#ao"/><use transform="matrix(0.06172839506172839,0,0,0.06172839506172839,83.8888888888889,0)" xlink:href="#ap"/></g><g id="g"><use transform="matrix(0.06172839506172839,0,0,0.06172839506172839,0,0)" xlink:href="#at"/><use transform="matrix(0.06172839506172839,0,0,0.06172839506172839,12.345679012345679,0)" xlink:href="#an"/><use transform="matrix(0.06172839506172839,0,0,0.06172839506172839,24.691358024691358,0)" xlink:href="#aj"/><use transform="matrix(0.06172839506172839,0,0,0.06172839506172839,37.03703703703704,0)" xlink:href="#at"/></g><g id="h"><use transform="matrix(0.06172839506172839,0,0,0.06172839506172839,0,0)" xlink:href="#as"/><use transform="matrix(0.06172839506172839,0,0,0.06172839506172839,15.987654320987653,0)" xlink:href="#al"/><use transform="matrix(0.06172839506172839,0,0,0.06172839506172839,20.864197530864196,0)" xlink:href="#ah"/><use transform="matrix(0.06172839506172839,0,0,0.06172839506172839,25.74074074074074,0)" xlink:href="#at"/></g><path fill="#333" d="M233-177c-1 41-23 64-60 70L243 0h-38l-65-103H63V0H30v-248c88 3 205-21 203 71zM63-129c60-2 137 13 137-47 0-61-80-42-137-45v92" id="az"/><path fill="#333" d="M210-169c-67 3-38 105-44 169h-31v-121c0-29-5-50-35-48C34-165 62-65 56 0H25l-1-190h30c1 10-1 24 2 32 10-44 99-50 107 0 11-21 27-35 58-36 85-2 47 119 55 194h-31v-121c0-29-5-49-35-48" id="aA"/><g id="i"><use transform="matrix(0.06172839506172839,0,0,0.06172839506172839,0,0)" xlink:href="#az"/><use transform="matrix(0.06172839506172839,0,0,0.06172839506172839,15.987654320987653,0)" xlink:href="#an"/><use transform="matrix(0.06172839506172839,0,0,0.06172839506172839,28.333333333333332,0)" xlink:href="#am"/><use transform="matrix(0.06172839506172839,0,0,0.06172839506172839,39.44444444444444,0)" xlink:href="#av"/><use transform="matrix(0.06172839506172839,0,0,0.06172839506172839,46.79012345679012,0)" xlink:href="#ao"/><use transform="matrix(0.06172839506172839,0,0,0.06172839506172839,59.1358024691358,0)" xlink:href="#al"/><use transform="matrix(0.06172839506172839,0,0,0.06172839506172839,64.01234567901234,0)" xlink:href="#ak"/><use transform="matrix(0.06172839506172839,0,0,0.06172839506172839,70.18518518518518,0)" xlink:href="#aA"/><use transform="matrix(0.06172839506172839,0,0,0.06172839506172839,88.64197530864196,0)" xlink:href="#an"/><use transform="matrix(0.06172839506172839,0,0,0.06172839506172839,100.98765432098764,0)" xlink:href="#ax"/><use transform="matrix(0.06172839506172839,0,0,0.06172839506172839,113.33333333333333,0)" xlink:href="#ak"/></g><g id="j"><use transform="matrix(0.06172839506172839,0,0,0.06172839506172839,0,0)" xlink:href="#az"/><use transform="matrix(0.06172839506172839,0,0,0.06172839506172839,15.987654320987653,0)" xlink:href="#an"/><use transform="matrix(0.06172839506172839,0,0,0.06172839506172839,28.333333333333332,0)" xlink:href="#ap"/><use transform="matrix(0.06172839506172839,0,0,0.06172839506172839,39.44444444444444,0)" xlink:href="#au"/><use transform="matrix(0.06172839506172839,0,0,0.06172839506172839,51.79012345679012,0)" xlink:href="#ao"/><use transform="matrix(0.06172839506172839,0,0,0.06172839506172839,64.1358024691358,0)" xlink:href="#av"/><use transform="matrix(0.06172839506172839,0,0,0.06172839506172839,71.48148148148148,0)" xlink:href="#am"/><use transform="matrix(0.06172839506172839,0,0,0.06172839506172839,82.5925925925926,0)" xlink:href="#an"/><use transform="matrix(0.06172839506172839,0,0,0.06172839506172839,94.93827160493828,0)" xlink:href="#ap"/></g><path fill="#333" d="M30-248c87 1 191-15 191 75 0 78-77 80-158 76V0H30v-248zm33 125c57 0 124 11 124-50 0-59-68-47-124-48v98" id="aB"/><g id="k"><use transform="matrix(0.06172839506172839,0,0,0.06172839506172839,0,0)" xlink:href="#aB"/><use transform="matrix(0.06172839506172839,0,0,0.06172839506172839,14.814814814814813,0)" xlink:href="#av"/><use transform="matrix(0.06172839506172839,0,0,0.06172839506172839,22.160493827160494,0)" xlink:href="#an"/><use transform="matrix(0.06172839506172839,0,0,0.06172839506172839,34.50617283950617,0)" xlink:href="#at"/><use transform="matrix(0.06172839506172839,0,0,0.06172839506172839,46.85185185185185,0)" xlink:href="#aj"/><use transform="matrix(0.06172839506172839,0,0,0.06172839506172839,59.197530864197525,0)" xlink:href="#ak"/><use transform="matrix(0.06172839506172839,0,0,0.06172839506172839,65.37037037037037,0)" xlink:href="#al"/><use transform="matrix(0.06172839506172839,0,0,0.06172839506172839,70.24691358024691,0)" xlink:href="#au"/><use transform="matrix(0.06172839506172839,0,0,0.06172839506172839,82.5925925925926,0)" xlink:href="#ax"/></g><path fill="#333" d="M212-179c-10-28-35-45-73-45-59 0-87 40-87 99 0 60 29 101 89 101 43 0 62-24 78-52l27 14C228-24 195 4 139 4 59 4 22-46 18-125c-6-104 99-153 187-111 19 9 31 26 39 46" id="aC"/><g id="l"><use transform="matrix(0.06172839506172839,0,0,0.06172839506172839,0,0)" xlink:href="#aC"/><use transform="matrix(0.06172839506172839,0,0,0.06172839506172839,15.987654320987653,0)" xlink:href="#ah"/><use transform="matrix(0.06172839506172839,0,0,0.06172839506172839,20.864197530864196,0)" xlink:href="#al"/><use transform="matrix(0.06172839506172839,0,0,0.06172839506172839,25.74074074074074,0)" xlink:href="#aA"/><use transform="matrix(0.06172839506172839,0,0,0.06172839506172839,44.19753086419753,0)" xlink:href="#aj"/><use transform="matrix(0.06172839506172839,0,0,0.06172839506172839,56.54320987654321,0)" xlink:href="#ak"/><use transform="matrix(0.06172839506172839,0,0,0.06172839506172839,62.71604938271605,0)" xlink:href="#an"/></g><g id="m"><use transform="matrix(0.06172839506172839,0,0,0.06172839506172839,0,0)" xlink:href="#aw"/><use transform="matrix(0.06172839506172839,0,0,0.06172839506172839,6.172839506172839,0)" xlink:href="#ax"/><use transform="matrix(0.06172839506172839,0,0,0.06172839506172839,18.51851851851852,0)" xlink:href="#ay"/><use transform="matrix(0.06172839506172839,0,0,0.06172839506172839,24.691358024691358,0)" xlink:href="#an"/><use transform="matrix(0.06172839506172839,0,0,0.06172839506172839,37.03703703703704,0)" xlink:href="#am"/><use transform="matrix(0.06172839506172839,0,0,0.06172839506172839,48.14814814814815,0)" xlink:href="#ak"/><use transform="matrix(0.06172839506172839,0,0,0.06172839506172839,54.320987654320994,0)" xlink:href="#an"/><use transform="matrix(0.06172839506172839,0,0,0.06172839506172839,66.66666666666667,0)" xlink:href="#at"/></g><g id="n"><use transform="matrix(0.06172839506172839,0,0,0.06172839506172839,0,0)" xlink:href="#aC"/><use transform="matrix(0.06172839506172839,0,0,0.06172839506172839,15.987654320987653,0)" xlink:href="#aj"/><use transform="matrix(0.06172839506172839,0,0,0.06172839506172839,28.333333333333332,0)" xlink:href="#av"/><use transform="matrix(0.06172839506172839,0,0,0.06172839506172839,35.67901234567901,0)" xlink:href="#am"/><use transform="matrix(0.06172839506172839,0,0,0.06172839506172839,46.79012345679013,0)" xlink:href="#aj"/><use transform="matrix(0.06172839506172839,0,0,0.06172839506172839,59.135802469135804,0)" xlink:href="#ap"/><use transform="matrix(0.06172839506172839,0,0,0.06172839506172839,70.24691358024691,0)" xlink:href="#ap"/></g><g id="o"><use transform="matrix(0.06172839506172839,0,0,0.06172839506172839,0,0)" xlink:href="#av"/><use transform="matrix(0.06172839506172839,0,0,0.06172839506172839,7.345679012345679,0)" xlink:href="#an"/><use transform="matrix(0.06172839506172839,0,0,0.06172839506172839,19.691358024691358,0)" xlink:href="#aA"/><use transform="matrix(0.06172839506172839,0,0,0.06172839506172839,38.148148148148145,0)" xlink:href="#au"/><use transform="matrix(0.06172839506172839,0,0,0.06172839506172839,50.49382716049382,0)" xlink:href="#ai"/><use transform="matrix(0.06172839506172839,0,0,0.06172839506172839,61.60493827160494,0)" xlink:href="#aj"/><use transform="matrix(0.06172839506172839,0,0,0.06172839506172839,73.95061728395062,0)" xlink:href="#ah"/></g><path fill="#333" d="M197 0v-115H63V0H30v-248h33v105h134v-105h34V0h-34" id="aD"/><g id="p"><use transform="matrix(0.06172839506172839,0,0,0.06172839506172839,0,0)" xlink:href="#aD"/><use transform="matrix(0.06172839506172839,0,0,0.06172839506172839,15.987654320987653,0)" xlink:href="#aj"/><use transform="matrix(0.06172839506172839,0,0,0.06172839506172839,28.333333333333332,0)" xlink:href="#ar"/><use transform="matrix(0.06172839506172839,0,0,0.06172839506172839,40.67901234567901,0)" xlink:href="#al"/><use transform="matrix(0.06172839506172839,0,0,0.06172839506172839,45.55555555555556,0)" xlink:href="#ak"/><use transform="matrix(0.06172839506172839,0,0,0.06172839506172839,51.7283950617284,0)" xlink:href="#aj"/><use transform="matrix(0.06172839506172839,0,0,0.06172839506172839,64.07407407407408,0)" xlink:href="#ak"/></g><path fill="#333" d="M205 0l-28-72H64L36 0H1l101-248h38L239 0h-34zm-38-99l-47-123c-12 45-31 82-46 123h93" id="aE"/><path fill="#333" d="M106-169C34-169 62-67 57 0H25v-261h32l-1 103c12-21 28-36 61-36 89 0 53 116 60 194h-32v-121c2-32-8-49-39-48" id="aF"/><path fill="#333" d="M177-190C167-65 218 103 67 71c-23-6-38-20-44-43l32-5c15 47 100 32 89-28v-30C133-14 115 1 83 1 29 1 15-40 15-95c0-56 16-97 71-98 29-1 48 16 59 35 1-10 0-23 2-32h30zM94-22c36 0 50-32 50-73 0-42-14-75-50-75-39 0-46 34-46 75s6 73 46 73" id="aG"/><g id="q"><use transform="matrix(0.06172839506172839,0,0,0.06172839506172839,0,0)" xlink:href="#aE"/><use transform="matrix(0.06172839506172839,0,0,0.06172839506172839,14.814814814814813,0)" xlink:href="#ax"/><use transform="matrix(0.06172839506172839,0,0,0.06172839506172839,27.160493827160494,0)" xlink:href="#ak"/><use transform="matrix(0.06172839506172839,0,0,0.06172839506172839,33.333333333333336,0)" xlink:href="#aF"/><use transform="matrix(0.06172839506172839,0,0,0.06172839506172839,45.67901234567901,0)" xlink:href="#av"/><use transform="matrix(0.06172839506172839,0,0,0.06172839506172839,53.02469135802469,0)" xlink:href="#au"/><use transform="matrix(0.06172839506172839,0,0,0.06172839506172839,65.37037037037037,0)" xlink:href="#aq"/><use transform="matrix(0.06172839506172839,0,0,0.06172839506172839,77.71604938271605,0)" xlink:href="#au"/><use transform="matrix(0.06172839506172839,0,0,0.06172839506172839,90.06172839506173,0)" xlink:href="#aG"/><use transform="matrix(0.06172839506172839,0,0,0.06172839506172839,102.40740740740742,0)" xlink:href="#an"/><use transform="matrix(0.06172839506172839,0,0,0.06172839506172839,114.7530864197531,0)" xlink:href="#ax"/><use transform="matrix(0.06172839506172839,0,0,0.06172839506172839,127.09876543209879,0)" xlink:href="#al"/><use transform="matrix(0.06172839506172839,0,0,0.06172839506172839,131.97530864197532,0)" xlink:href="#am"/></g><g id="r"><use transform="matrix(0.06172839506172839,0,0,0.06172839506172839,0,0)" xlink:href="#ay"/><use transform="matrix(0.06172839506172839,0,0,0.06172839506172839,6.172839506172839,0)" xlink:href="#aj"/><use transform="matrix(0.06172839506172839,0,0,0.06172839506172839,18.51851851851852,0)" xlink:href="#am"/><use transform="matrix(0.06172839506172839,0,0,0.06172839506172839,29.62962962962963,0)" xlink:href="#ak"/><use transform="matrix(0.06172839506172839,0,0,0.06172839506172839,35.80246913580247,0)" xlink:href="#au"/><use transform="matrix(0.06172839506172839,0,0,0.06172839506172839,48.148148148148145,0)" xlink:href="#av"/><use transform="matrix(0.06172839506172839,0,0,0.06172839506172839,55.49382716049382,0)" xlink:href="#ap"/></g><path fill="#333" d="M30-248c118-7 216 8 213 122C240-48 200 0 122 0H30v-248zM63-27c89 8 146-16 146-99s-60-101-146-95v194" id="aH"/><g id="s"><use transform="matrix(0.06172839506172839,0,0,0.06172839506172839,0,0)" xlink:href="#aH"/><use transform="matrix(0.06172839506172839,0,0,0.06172839506172839,15.987654320987653,0)" xlink:href="#an"/><use transform="matrix(0.06172839506172839,0,0,0.06172839506172839,28.333333333333332,0)" xlink:href="#aj"/><use transform="matrix(0.06172839506172839,0,0,0.06172839506172839,40.67901234567901,0)" xlink:href="#ak"/><use transform="matrix(0.06172839506172839,0,0,0.06172839506172839,46.851851851851855,0)" xlink:href="#aF"/></g><g id="t"><use transform="matrix(0.06172839506172839,0,0,0.06172839506172839,0,0)" xlink:href="#aE"/><use transform="matrix(0.06172839506172839,0,0,0.06172839506172839,14.814814814814813,0)" xlink:href="#aG"/><use transform="matrix(0.06172839506172839,0,0,0.06172839506172839,27.160493827160494,0)" xlink:href="#av"/><use transform="matrix(0.06172839506172839,0,0,0.06172839506172839,34.50617283950617,0)" xlink:href="#al"/><use transform="matrix(0.06172839506172839,0,0,0.06172839506172839,39.382716049382715,0)" xlink:href="#am"/><use transform="matrix(0.06172839506172839,0,0,0.06172839506172839,50.49382716049382,0)" xlink:href="#ao"/><use transform="matrix(0.06172839506172839,0,0,0.06172839506172839,62.8395061728395,0)" xlink:href="#ah"/><use transform="matrix(0.06172839506172839,0,0,0.06172839506172839,67.71604938271604,0)" xlink:href="#ak"/><use transform="matrix(0.06172839506172839,0,0,0.06172839506172839,73.88888888888887,0)" xlink:href="#ao"/><use transform="matrix(0.06172839506172839,0,0,0.06172839506172839,86.23456790123456,0)" xlink:href="#av"/><use transform="matrix(0.06172839506172839,0,0,0.06172839506172839,93.58024691358024,0)" xlink:href="#aj"/><use transform="matrix(0.06172839506172839,0,0,0.06172839506172839,105.92592592592592,0)" xlink:href="#ah"/></g><g id="u"><use transform="matrix(0.06172839506172839,0,0,0.06172839506172839,0,0)" xlink:href="#ap"/><use transform="matrix(0.06172839506172839,0,0,0.06172839506172839,11.11111111111111,0)" xlink:href="#as"/><use transform="matrix(0.06172839506172839,0,0,0.06172839506172839,27.098765432098766,0)" xlink:href="#al"/><use transform="matrix(0.06172839506172839,0,0,0.06172839506172839,31.975308641975307,0)" xlink:href="#ax"/><use transform="matrix(0.06172839506172839,0,0,0.06172839506172839,44.32098765432099,0)" xlink:href="#an"/></g><path fill="#333" d="M0 4l72-265h28L28 4H0" id="aI"/><g id="v"><use transform="matrix(0.06172839506172839,0,0,0.06172839506172839,0,0)" xlink:href="#az"/><use transform="matrix(0.06172839506172839,0,0,0.06172839506172839,15.987654320987653,0)" xlink:href="#an"/><use transform="matrix(0.06172839506172839,0,0,0.06172839506172839,28.333333333333332,0)" xlink:href="#am"/><use transform="matrix(0.06172839506172839,0,0,0.06172839506172839,39.44444444444444,0)" xlink:href="#av"/><use transform="matrix(0.06172839506172839,0,0,0.06172839506172839,46.79012345679012,0)" xlink:href="#ao"/><use transform="matrix(0.06172839506172839,0,0,0.06172839506172839,59.1358024691358,0)" xlink:href="#al"/><use transform="matrix(0.06172839506172839,0,0,0.06172839506172839,64.01234567901234,0)" xlink:href="#ak"/><use transform="matrix(0.06172839506172839,0,0,0.06172839506172839,70.18518518518518,0)" xlink:href="#aA"/><use transform="matrix(0.06172839506172839,0,0,0.06172839506172839,88.64197530864196,0)" xlink:href="#an"/><use transform="matrix(0.06172839506172839,0,0,0.06172839506172839,100.98765432098764,0)" xlink:href="#ax"/><use transform="matrix(0.06172839506172839,0,0,0.06172839506172839,113.33333333333333,0)" xlink:href="#ak"/><use transform="matrix(0.06172839506172839,0,0,0.06172839506172839,119.50617283950616,0)" xlink:href="#aI"/></g><g id="w"><use transform="matrix(0.06172839506172839,0,0,0.06172839506172839,0,0)" xlink:href="#az"/><use transform="matrix(0.06172839506172839,0,0,0.06172839506172839,15.987654320987653,0)" xlink:href="#an"/><use transform="matrix(0.06172839506172839,0,0,0.06172839506172839,28.333333333333332,0)" xlink:href="#aq"/><use transform="matrix(0.06172839506172839,0,0,0.06172839506172839,40.67901234567901,0)" xlink:href="#ah"/><use transform="matrix(0.06172839506172839,0,0,0.06172839506172839,45.55555555555556,0)" xlink:href="#an"/><use transform="matrix(0.06172839506172839,0,0,0.06172839506172839,57.901234567901234,0)" xlink:href="#ax"/><use transform="matrix(0.06172839506172839,0,0,0.06172839506172839,70.24691358024691,0)" xlink:href="#al"/><use transform="matrix(0.06172839506172839,0,0,0.06172839506172839,75.12345679012346,0)" xlink:href="#ap"/><use transform="matrix(0.06172839506172839,0,0,0.06172839506172839,86.23456790123457,0)" xlink:href="#aF"/><use transform="matrix(0.06172839506172839,0,0,0.06172839506172839,98.58024691358025,0)" xlink:href="#aA"/><use transform="matrix(0.06172839506172839,0,0,0.06172839506172839,117.03703703703704,0)" xlink:href="#an"/><use transform="matrix(0.06172839506172839,0,0,0.06172839506172839,129.3827160493827,0)" xlink:href="#ax"/><use transform="matrix(0.06172839506172839,0,0,0.06172839506172839,141.72839506172838,0)" xlink:href="#ak"/></g><g id="x"><use transform="matrix(0.06172839506172839,0,0,0.06172839506172839,0,0)" xlink:href="#af"/><use transform="matrix(0.06172839506172839,0,0,0.06172839506172839,14.814814814814813,0)" xlink:href="#ao"/><use transform="matrix(0.06172839506172839,0,0,0.06172839506172839,27.160493827160494,0)" xlink:href="#av"/><use transform="matrix(0.06172839506172839,0,0,0.06172839506172839,34.50617283950617,0)" xlink:href="#ai"/><use transform="matrix(0.06172839506172839,0,0,0.06172839506172839,45.61728395061728,0)" xlink:href="#an"/><use transform="matrix(0.06172839506172839,0,0,0.06172839506172839,57.962962962962955,0)" xlink:href="#al"/><use transform="matrix(0.06172839506172839,0,0,0.06172839506172839,62.8395061728395,0)" xlink:href="#ah"/><use transform="matrix(0.06172839506172839,0,0,0.06172839506172839,67.71604938271604,0)" xlink:href="#ah"/><use transform="matrix(0.06172839506172839,0,0,0.06172839506172839,72.59259259259258,0)" xlink:href="#aj"/><use transform="matrix(0.06172839506172839,0,0,0.06172839506172839,84.93827160493827,0)" xlink:href="#ax"/><use transform="matrix(0.06172839506172839,0,0,0.06172839506172839,97.28395061728395,0)" xlink:href="#am"/><use transform="matrix(0.06172839506172839,0,0,0.06172839506172839,108.39506172839506,0)" xlink:href="#an"/></g><g id="y"><use transform="matrix(0.06172839506172839,0,0,0.06172839506172839,0,0)" xlink:href="#af"/><use transform="matrix(0.06172839506172839,0,0,0.06172839506172839,14.814814814814813,0)" xlink:href="#as"/><use transform="matrix(0.06172839506172839,0,0,0.06172839506172839,30.80246913580247,0)" xlink:href="#al"/><use transform="matrix(0.06172839506172839,0,0,0.06172839506172839,35.67901234567901,0)" xlink:href="#ax"/><use transform="matrix(0.06172839506172839,0,0,0.06172839506172839,48.02469135802469,0)" xlink:href="#an"/></g><g id="z"><use transform="matrix(0.06172839506172839,0,0,0.06172839506172839,0,0)" xlink:href="#at"/><use transform="matrix(0.06172839506172839,0,0,0.06172839506172839,12.345679012345679,0)" xlink:href="#an"/><use transform="matrix(0.06172839506172839,0,0,0.06172839506172839,24.691358024691358,0)" xlink:href="#ax"/><use transform="matrix(0.06172839506172839,0,0,0.06172839506172839,37.03703703703704,0)" xlink:href="#ap"/><use transform="matrix(0.06172839506172839,0,0,0.06172839506172839,48.14814814814815,0)" xlink:href="#al"/><use transform="matrix(0.06172839506172839,0,0,0.06172839506172839,53.0246913580247,0)" xlink:href="#ak"/><use transform="matrix(0.06172839506172839,0,0,0.06172839506172839,59.19753086419754,0)" xlink:href="#ag"/></g><path fill="#333" d="M63-220v92h138v28H63V0H30v-248h175v28H63" id="aJ"/><g id="A"><use transform="matrix(0.06172839506172839,0,0,0.06172839506172839,0,0)" xlink:href="#aJ"/><use transform="matrix(0.06172839506172839,0,0,0.06172839506172839,13.518518518518517,0)" xlink:href="#an"/><use transform="matrix(0.06172839506172839,0,0,0.06172839506172839,25.864197530864196,0)" xlink:href="#an"/><use transform="matrix(0.06172839506172839,0,0,0.06172839506172839,38.20987654320987,0)" xlink:href="#at"/></g><g id="B"><use transform="matrix(0.06172839506172839,0,0,0.06172839506172839,0,0)" xlink:href="#ap"/><use transform="matrix(0.06172839506172839,0,0,0.06172839506172839,11.11111111111111,0)" xlink:href="#an"/><use transform="matrix(0.06172839506172839,0,0,0.06172839506172839,23.45679012345679,0)" xlink:href="#am"/><use transform="matrix(0.06172839506172839,0,0,0.06172839506172839,34.5679012345679,0)" xlink:href="#ao"/><use transform="matrix(0.06172839506172839,0,0,0.06172839506172839,46.913580246913575,0)" xlink:href="#av"/><use transform="matrix(0.06172839506172839,0,0,0.06172839506172839,54.25925925925925,0)" xlink:href="#al"/><use transform="matrix(0.06172839506172839,0,0,0.06172839506172839,59.1358024691358,0)" xlink:href="#ak"/><use transform="matrix(0.06172839506172839,0,0,0.06172839506172839,65.30864197530863,0)" xlink:href="#ag"/></g><path fill="#333" d="M266 0h-40l-56-210L115 0H75L2-248h35L96-30l15-64 43-154h32l59 218 59-218h35" id="aK"/><g id="C"><use transform="matrix(0.06172839506172839,0,0,0.06172839506172839,0,0)" xlink:href="#aK"/><use transform="matrix(0.06172839506172839,0,0,0.06172839506172839,20.123456790123456,0)" xlink:href="#aj"/><use transform="matrix(0.06172839506172839,0,0,0.06172839506172839,32.46913580246913,0)" xlink:href="#ak"/><use transform="matrix(0.06172839506172839,0,0,0.06172839506172839,38.641975308641975,0)" xlink:href="#an"/><use transform="matrix(0.06172839506172839,0,0,0.06172839506172839,50.98765432098765,0)" xlink:href="#av"/></g><g id="D"><use transform="matrix(0.0493827160493827,0,0,0.0493827160493827,0,0)" xlink:href="#aJ"/><use transform="matrix(0.0493827160493827,0,0,0.0493827160493827,10.814814814814811,0)" xlink:href="#aj"/><use transform="matrix(0.0493827160493827,0,0,0.0493827160493827,20.69135802469135,0)" xlink:href="#am"/><use transform="matrix(0.0493827160493827,0,0,0.0493827160493827,29.580246913580236,0)" xlink:href="#ak"/><use transform="matrix(0.0493827160493827,0,0,0.0493827160493827,34.518518518518505,0)" xlink:href="#au"/><use transform="matrix(0.0493827160493827,0,0,0.0493827160493827,44.39506172839504,0)" xlink:href="#av"/><use transform="matrix(0.0493827160493827,0,0,0.0493827160493827,50.27160493827158,0)" xlink:href="#ap"/></g><g id="E"><use transform="matrix(0.0493827160493827,0,0,0.0493827160493827,0,0)" xlink:href="#ak"/><use transform="matrix(0.0493827160493827,0,0,0.0493827160493827,4.9382716049382696,0)" xlink:href="#aF"/><use transform="matrix(0.0493827160493827,0,0,0.0493827160493827,14.81481481481481,0)" xlink:href="#aj"/><use transform="matrix(0.0493827160493827,0,0,0.0493827160493827,24.691358024691347,0)" xlink:href="#ak"/></g><g id="F"><use transform="matrix(0.0493827160493827,0,0,0.0493827160493827,0,0)" xlink:href="#aA"/><use transform="matrix(0.0493827160493827,0,0,0.0493827160493827,14.765432098765427,0)" xlink:href="#aj"/><use transform="matrix(0.0493827160493827,0,0,0.0493827160493827,24.641975308641968,0)" xlink:href="#ag"/></g><g id="G"><use transform="matrix(0.0493827160493827,0,0,0.0493827160493827,0,0)" xlink:href="#aF"/><use transform="matrix(0.0493827160493827,0,0,0.0493827160493827,9.876543209876539,0)" xlink:href="#aj"/><use transform="matrix(0.0493827160493827,0,0,0.0493827160493827,19.753086419753078,0)" xlink:href="#ai"/><use transform="matrix(0.0493827160493827,0,0,0.0493827160493827,28.641975308641964,0)" xlink:href="#an"/></g><g id="H"><use transform="matrix(0.0493827160493827,0,0,0.0493827160493827,0,0)" xlink:href="#aq"/><use transform="matrix(0.0493827160493827,0,0,0.0493827160493827,9.876543209876539,0)" xlink:href="#au"/><use transform="matrix(0.0493827160493827,0,0,0.0493827160493827,19.753086419753078,0)" xlink:href="#ap"/><use transform="matrix(0.0493827160493827,0,0,0.0493827160493827,28.641975308641964,0)" xlink:href="#al"/><use transform="matrix(0.0493827160493827,0,0,0.0493827160493827,32.543209876543195,0)" xlink:href="#ak"/><use transform="matrix(0.0493827160493827,0,0,0.0493827160493827,37.48148148148147,0)" xlink:href="#al"/><use transform="matrix(0.0493827160493827,0,0,0.0493827160493827,41.3827160493827,0)" xlink:href="#ai"/><use transform="matrix(0.0493827160493827,0,0,0.0493827160493827,50.27160493827159,0)" xlink:href="#an"/></g><g id="I"><use transform="matrix(0.0493827160493827,0,0,0.0493827160493827,0,0)" xlink:href="#au"/><use transform="matrix(0.0493827160493827,0,0,0.0493827160493827,9.876543209876539,0)" xlink:href="#av"/></g><g id="J"><use transform="matrix(0.0493827160493827,0,0,0.0493827160493827,0,0)" xlink:href="#ax"/><use transform="matrix(0.0493827160493827,0,0,0.0493827160493827,9.876543209876539,0)" xlink:href="#an"/><use transform="matrix(0.0493827160493827,0,0,0.0493827160493827,19.753086419753078,0)" xlink:href="#aG"/><use transform="matrix(0.0493827160493827,0,0,0.0493827160493827,29.62962962962962,0)" xlink:href="#aj"/><use transform="matrix(0.0493827160493827,0,0,0.0493827160493827,39.506172839506156,0)" xlink:href="#ak"/><use transform="matrix(0.0493827160493827,0,0,0.0493827160493827,44.44444444444443,0)" xlink:href="#al"/><use transform="matrix(0.0493827160493827,0,0,0.0493827160493827,48.34567901234566,0)" xlink:href="#ai"/><use transform="matrix(0.0493827160493827,0,0,0.0493827160493827,57.23456790123455,0)" xlink:href="#an"/></g><g id="K"><use transform="matrix(0.0493827160493827,0,0,0.0493827160493827,0,0)" xlink:href="#an"/><use transform="matrix(0.0493827160493827,0,0,0.0493827160493827,9.876543209876539,0)" xlink:href="#ay"/><use transform="matrix(0.0493827160493827,0,0,0.0493827160493827,14.469135802469129,0)" xlink:href="#ay"/><use transform="matrix(0.0493827160493827,0,0,0.0493827160493827,19.407407407407398,0)" xlink:href="#an"/><use transform="matrix(0.0493827160493827,0,0,0.0493827160493827,29.283950617283935,0)" xlink:href="#am"/><use transform="matrix(0.0493827160493827,0,0,0.0493827160493827,38.17283950617282,0)" xlink:href="#ak"/><use transform="matrix(0.0493827160493827,0,0,0.0493827160493827,43.11111111111109,0)" xlink:href="#ap"/></g><g id="L"><use transform="matrix(0.049382716049382706,0,0,0.049382716049382706,0,0)" xlink:href="#af"/><use transform="matrix(0.049382716049382706,0,0,0.049382716049382706,11.85185185185185,0)" xlink:href="#aq"/><use transform="matrix(0.049382716049382706,0,0,0.049382716049382706,21.728395061728392,0)" xlink:href="#al"/><use transform="matrix(0.049382716049382706,0,0,0.049382716049382706,25.629629629629626,0)" xlink:href="#ah"/><use transform="matrix(0.049382716049382706,0,0,0.049382716049382706,29.530864197530857,0)" xlink:href="#ah"/><use transform="matrix(0.049382716049382706,0,0,0.049382716049382706,33.432098765432094,0)" xlink:href="#au"/><use transform="matrix(0.049382716049382706,0,0,0.049382716049382706,43.30864197530863,0)" xlink:href="#ai"/><use transform="matrix(0.049382716049382706,0,0,0.049382716049382706,52.19753086419752,0)" xlink:href="#an"/><use transform="matrix(0.049382716049382706,0,0,0.049382716049382706,62.07407407407406,0)" xlink:href="#av"/></g><g id="M"><use transform="matrix(0.049382716049382706,0,0,0.049382716049382706,0,0)" xlink:href="#ay"/><use transform="matrix(0.049382716049382706,0,0,0.049382716049382706,4.93827160493827,0)" xlink:href="#av"/><use transform="matrix(0.049382716049382706,0,0,0.049382716049382706,10.814814814814813,0)" xlink:href="#au"/><use transform="matrix(0.049382716049382706,0,0,0.049382716049382706,20.691358024691354,0)" xlink:href="#aA"/></g><g id="N"><use transform="matrix(0.049382716049382706,0,0,0.049382716049382706,0,0)" xlink:href="#al"/><use transform="matrix(0.049382716049382706,0,0,0.049382716049382706,3.9012345679012337,0)" xlink:href="#ax"/><use transform="matrix(0.049382716049382706,0,0,0.049382716049382706,13.777777777777775,0)" xlink:href="#ay"/><use transform="matrix(0.049382716049382706,0,0,0.049382716049382706,18.716049382716044,0)" xlink:href="#an"/><use transform="matrix(0.049382716049382706,0,0,0.049382716049382706,28.592592592592588,0)" xlink:href="#am"/><use transform="matrix(0.049382716049382706,0,0,0.049382716049382706,37.481481481481474,0)" xlink:href="#ak"/><use transform="matrix(0.049382716049382706,0,0,0.049382716049382706,42.419753086419746,0)" xlink:href="#an"/><use transform="matrix(0.049382716049382706,0,0,0.049382716049382706,52.29629629629628,0)" xlink:href="#at"/></g><g id="O"><use transform="matrix(0.049382716049382706,0,0,0.049382716049382706,0,0)" xlink:href="#as"/><use transform="matrix(0.049382716049382706,0,0,0.049382716049382706,12.790123456790122,0)" xlink:href="#al"/><use transform="matrix(0.049382716049382706,0,0,0.049382716049382706,16.691358024691354,0)" xlink:href="#ah"/><use transform="matrix(0.049382716049382706,0,0,0.049382716049382706,20.592592592592588,0)" xlink:href="#at"/></g><g id="P"><use transform="matrix(0.049382716049382706,0,0,0.049382716049382706,0,0)" xlink:href="#aj"/><use transform="matrix(0.049382716049382706,0,0,0.049382716049382706,9.87654320987654,0)" xlink:href="#ax"/><use transform="matrix(0.049382716049382706,0,0,0.049382716049382706,19.75308641975308,0)" xlink:href="#al"/><use transform="matrix(0.049382716049382706,0,0,0.049382716049382706,23.654320987654316,0)" xlink:href="#aA"/><use transform="matrix(0.049382716049382706,0,0,0.049382716049382706,38.419753086419746,0)" xlink:href="#aj"/><use transform="matrix(0.049382716049382706,0,0,0.049382716049382706,48.29629629629629,0)" xlink:href="#ah"/><use transform="matrix(0.049382716049382706,0,0,0.049382716049382706,52.19753086419752,0)" xlink:href="#ap"/></g><g id="Q"><use transform="matrix(0.049382716049382706,0,0,0.049382716049382706,0,0)" xlink:href="#ak"/><use transform="matrix(0.049382716049382706,0,0,0.049382716049382706,4.93827160493827,0)" xlink:href="#au"/></g><g id="R"><use transform="matrix(0.049382716049382706,0,0,0.049382716049382706,0,0)" xlink:href="#ay"/><use transform="matrix(0.049382716049382706,0,0,0.049382716049382706,4.93827160493827,0)" xlink:href="#aj"/><use transform="matrix(0.049382716049382706,0,0,0.049382716049382706,14.814814814814811,0)" xlink:href="#av"/><use transform="matrix(0.049382716049382706,0,0,0.049382716049382706,20.691358024691354,0)" xlink:href="#aA"/><use transform="matrix(0.049382716049382706,0,0,0.049382716049382706,35.456790123456784,0)" xlink:href="#an"/><use transform="matrix(0.049382716049382706,0,0,0.049382716049382706,45.33333333333333,0)" xlink:href="#at"/></g><g id="S"><use transform="matrix(0.049382716049382706,0,0,0.049382716049382706,0,0)" xlink:href="#aJ"/><use transform="matrix(0.049382716049382706,0,0,0.049382716049382706,10.814814814814813,0)" xlink:href="#aj"/><use transform="matrix(0.049382716049382706,0,0,0.049382716049382706,20.691358024691354,0)" xlink:href="#am"/><use transform="matrix(0.049382716049382706,0,0,0.049382716049382706,29.58024691358024,0)" xlink:href="#ak"/><use transform="matrix(0.049382716049382706,0,0,0.049382716049382706,34.51851851851851,0)" xlink:href="#au"/><use transform="matrix(0.049382716049382706,0,0,0.049382716049382706,44.39506172839505,0)" xlink:href="#av"/><use transform="matrix(0.049382716049382706,0,0,0.049382716049382706,50.271604938271594,0)" xlink:href="#ap"/></g><g id="T"><use transform="matrix(0.049382716049382706,0,0,0.049382716049382706,0,0)" xlink:href="#ak"/><use transform="matrix(0.049382716049382706,0,0,0.049382716049382706,4.93827160493827,0)" xlink:href="#aF"/><use transform="matrix(0.049382716049382706,0,0,0.049382716049382706,14.814814814814811,0)" xlink:href="#aj"/><use transform="matrix(0.049382716049382706,0,0,0.049382716049382706,24.691358024691354,0)" xlink:href="#ak"/></g><g id="U"><use transform="matrix(0.049382716049382706,0,0,0.049382716049382706,0,0)" xlink:href="#aA"/><use transform="matrix(0.049382716049382706,0,0,0.049382716049382706,14.765432098765428,0)" xlink:href="#aj"/><use transform="matrix(0.049382716049382706,0,0,0.049382716049382706,24.641975308641968,0)" xlink:href="#ag"/></g><g id="V"><use transform="matrix(0.049382716049382706,0,0,0.049382716049382706,0,0)" xlink:href="#al"/><use transform="matrix(0.049382716049382706,0,0,0.049382716049382706,3.9012345679012337,0)" xlink:href="#ax"/><use transform="matrix(0.049382716049382706,0,0,0.049382716049382706,13.777777777777775,0)" xlink:href="#am"/><use transform="matrix(0.049382716049382706,0,0,0.049382716049382706,22.666666666666664,0)" xlink:href="#av"/><use transform="matrix(0.049382716049382706,0,0,0.049382716049382706,28.543209876543205,0)" xlink:href="#an"/><use transform="matrix(0.049382716049382706,0,0,0.049382716049382706,38.419753086419746,0)" xlink:href="#aj"/><use transform="matrix(0.049382716049382706,0,0,0.049382716049382706,48.29629629629629,0)" xlink:href="#ap"/><use transform="matrix(0.049382716049382706,0,0,0.049382716049382706,57.185185185185176,0)" xlink:href="#an"/></g><g id="W"><use transform="matrix(0.049382716049382706,0,0,0.049382716049382706,0,0)" xlink:href="#aE"/><use transform="matrix(0.049382716049382706,0,0,0.049382716049382706,11.85185185185185,0)" xlink:href="#af"/><use transform="matrix(0.049382716049382706,0,0,0.049382716049382706,23.7037037037037,0)" xlink:href="#aJ"/></g><g id="X"><use transform="matrix(0.049382716049382706,0,0,0.049382716049382706,0,0)" xlink:href="#ak"/><use transform="matrix(0.049382716049382706,0,0,0.049382716049382706,4.93827160493827,0)" xlink:href="#av"/><use transform="matrix(0.049382716049382706,0,0,0.049382716049382706,10.814814814814813,0)" xlink:href="#aj"/><use transform="matrix(0.049382716049382706,0,0,0.049382716049382706,20.691358024691354,0)" xlink:href="#ax"/><use transform="matrix(0.049382716049382706,0,0,0.049382716049382706,30.567901234567895,0)" xlink:href="#ap"/><use transform="matrix(0.049382716049382706,0,0,0.049382716049382706,39.456790123456784,0)" xlink:href="#aA"/><use transform="matrix(0.049382716049382706,0,0,0.049382716049382706,54.222222222222214,0)" xlink:href="#al"/><use transform="matrix(0.049382716049382706,0,0,0.049382716049382706,58.12345679012345,0)" xlink:href="#ap"/><use transform="matrix(0.049382716049382706,0,0,0.049382716049382706,67.01234567901234,0)" xlink:href="#ap"/><use transform="matrix(0.049382716049382706,0,0,0.049382716049382706,75.90123456790123,0)" xlink:href="#al"/><use transform="matrix(0.049382716049382706,0,0,0.049382716049382706,79.80246913580245,0)" xlink:href="#au"/><use transform="matrix(0.049382716049382706,0,0,0.049382716049382706,89.679012345679,0)" xlink:href="#ax"/></g><g id="Y"><use transform="matrix(0.049382716049382706,0,0,0.049382716049382706,0,0)" xlink:href="#at"/><use transform="matrix(0.049382716049382706,0,0,0.049382716049382706,9.87654320987654,0)" xlink:href="#an"/><use transform="matrix(0.049382716049382706,0,0,0.049382716049382706,19.75308641975308,0)" xlink:href="#am"/><use transform="matrix(0.049382716049382706,0,0,0.049382716049382706,28.64197530864197,0)" xlink:href="#av"/><use transform="matrix(0.049382716049382706,0,0,0.049382716049382706,34.51851851851851,0)" xlink:href="#an"/><use transform="matrix(0.049382716049382706,0,0,0.049382716049382706,44.39506172839505,0)" xlink:href="#aj"/><use transform="matrix(0.049382716049382706,0,0,0.049382716049382706,54.271604938271594,0)" xlink:href="#ap"/><use transform="matrix(0.049382716049382706,0,0,0.049382716049382706,63.16049382716048,0)" xlink:href="#an"/></g><g id="Z"><use transform="matrix(0.049382716049382706,0,0,0.049382716049382706,0,0)" xlink:href="#ar"/><use transform="matrix(0.049382716049382706,0,0,0.049382716049382706,9.87654320987654,0)" xlink:href="#an"/></g><g id="aa"><use transform="matrix(0.049382716049382706,0,0,0.049382716049382706,0,0)" xlink:href="#aA"/><use transform="matrix(0.049382716049382706,0,0,0.049382716049382706,14.765432098765428,0)" xlink:href="#au"/><use transform="matrix(0.049382716049382706,0,0,0.049382716049382706,24.641975308641968,0)" xlink:href="#av"/><use transform="matrix(0.049382716049382706,0,0,0.049382716049382706,30.51851851851851,0)" xlink:href="#an"/></g><g id="ab"><use transform="matrix(0.049382716049382706,0,0,0.049382716049382706,0,0)" xlink:href="#av"/><use transform="matrix(0.049382716049382706,0,0,0.049382716049382706,5.876543209876542,0)" xlink:href="#an"/><use transform="matrix(0.049382716049382706,0,0,0.049382716049382706,15.75308641975308,0)" xlink:href="#ah"/><use transform="matrix(0.049382716049382706,0,0,0.049382716049382706,19.654320987654316,0)" xlink:href="#an"/><use transform="matrix(0.049382716049382706,0,0,0.049382716049382706,29.530864197530857,0)" xlink:href="#ai"/><use transform="matrix(0.049382716049382706,0,0,0.049382716049382706,38.419753086419746,0)" xlink:href="#aj"/><use transform="matrix(0.049382716049382706,0,0,0.049382716049382706,48.29629629629629,0)" xlink:href="#ax"/><use transform="matrix(0.049382716049382706,0,0,0.049382716049382706,58.17283950617284,0)" xlink:href="#ak"/></g><g id="ac"><use transform="matrix(0.049382716049382706,0,0,0.049382716049382706,0,0)" xlink:href="#al"/><use transform="matrix(0.049382716049382706,0,0,0.049382716049382706,3.9012345679012337,0)" xlink:href="#ax"/></g><path fill="#333" d="M16-82v-28h88v28H16" id="aL"/><g id="ad"><use transform="matrix(0.049382716049382706,0,0,0.049382716049382706,0,0)" xlink:href="#ax"/><use transform="matrix(0.049382716049382706,0,0,0.049382716049382706,9.87654320987654,0)" xlink:href="#au"/><use transform="matrix(0.049382716049382706,0,0,0.049382716049382706,19.75308641975308,0)" xlink:href="#ax"/><use transform="matrix(0.049382716049382706,0,0,0.049382716049382706,29.629629629629623,0)" xlink:href="#aL"/><use transform="matrix(0.049382716049382706,0,0,0.049382716049382706,35.50617283950616,0)" xlink:href="#al"/><use transform="matrix(0.049382716049382706,0,0,0.049382716049382706,39.4074074074074,0)" xlink:href="#ax"/><use transform="matrix(0.049382716049382706,0,0,0.049382716049382706,49.283950617283935,0)" xlink:href="#ak"/><use transform="matrix(0.049382716049382706,0,0,0.049382716049382706,54.222222222222214,0)" xlink:href="#an"/><use transform="matrix(0.049382716049382706,0,0,0.049382716049382706,64.09876543209874,0)" xlink:href="#ax"/><use transform="matrix(0.049382716049382706,0,0,0.049382716049382706,73.97530864197529,0)" xlink:href="#ap"/><use transform="matrix(0.049382716049382706,0,0,0.049382716049382706,82.86419753086417,0)" xlink:href="#al"/><use transform="matrix(0.049382716049382706,0,0,0.049382716049382706,86.7654320987654,0)" xlink:href="#ai"/><use transform="matrix(0.049382716049382706,0,0,0.049382716049382706,95.65432098765429,0)" xlink:href="#an"/></g><g id="ae"><use transform="matrix(0.049382716049382706,0,0,0.049382716049382706,0,0)" xlink:href="#ay"/><use transform="matrix(0.049382716049382706,0,0,0.049382716049382706,4.93827160493827,0)" xlink:href="#aj"/><use transform="matrix(0.049382716049382706,0,0,0.049382716049382706,14.814814814814811,0)" xlink:href="#av"/><use transform="matrix(0.049382716049382706,0,0,0.049382716049382706,20.691358024691354,0)" xlink:href="#aA"/><use transform="matrix(0.049382716049382706,0,0,0.049382716049382706,35.456790123456784,0)" xlink:href="#al"/><use transform="matrix(0.049382716049382706,0,0,0.049382716049382706,39.35802469135802,0)" xlink:href="#ax"/><use transform="matrix(0.049382716049382706,0,0,0.049382716049382706,49.234567901234556,0)" xlink:href="#aG"/></g></defs></g></svg>